<?xml version="1.0" encoding="UTF-8" standalone="no"?>
<svg
   xmlns:dc="http://purl.org/dc/elements/1.1/"
   xmlns:cc="http://creativecommons.org/ns#"
   xmlns:rdf="http://www.w3.org/1999/02/22-rdf-syntax-ns#"
   xmlns:svg="http://www.w3.org/2000/svg"
   xmlns="http://www.w3.org/2000/svg"
   xmlns:sodipodi="http://sodipodi.sourceforge.net/DTD/sodipodi-0.dtd"
   xmlns:inkscape="http://www.inkscape.org/namespaces/inkscape"
   enable-background="new 0 0 55 55"
   height="55px"
   version="1.1"
   viewBox="0 0 55 55"
   width="55px"
   x="0px"
   xml:space="preserve"
   y="0px"
   id="svg2"
   inkscape:version="0.91 r13725"
   sodipodi:docname="add-column.svg"><metadata
     id="metadata19"><rdf:RDF><cc:Work
         rdf:about=""><dc:format>image/svg+xml</dc:format><dc:type
           rdf:resource="http://purl.org/dc/dcmitype/StillImage" /><dc:title></dc:title></cc:Work></rdf:RDF></metadata><defs
     id="defs17" /><sodipodi:namedview
     pagecolor="#ffffff"
     bordercolor="#666666"
     borderopacity="1"
     objecttolerance="10"
     gridtolerance="10"
     guidetolerance="10"
     inkscape:pageopacity="0"
     inkscape:pageshadow="2"
     inkscape:window-width="1366"
     inkscape:window-height="706"
     id="namedview15"
     showgrid="false"
     inkscape:zoom="4.2909091"
     inkscape:cx="42.334337"
     inkscape:cy="24.574369"
     inkscape:window-x="0"
     inkscape:window-y="0"
     inkscape:window-maximized="1"
     inkscape:current-layer="svg2" /><g
     display="block"
     id="view-list"
     transform="matrix(0,-0.69991001,0.69991001,0,-5.6390477,47.704726)"
     style="display:block;fill:#ffffff;stroke:#ffffff"><g
       display="inline"
       id="g5"
       style="display:inline;fill:#ffffff;stroke:#ffffff"><line
         x1="7"
         x2="48"
         y1="11"
         y2="11"
         id="line7"
         style="fill:#ffffff;stroke:#ffffff;stroke-width:3.5;stroke-linecap:round" /><line
         x1="7"
         x2="48"
         y1="21.999001"
         y2="21.999001"
         id="line9"
         style="fill:#ffffff;stroke:#ffffff;stroke-width:3.5;stroke-linecap:round" /><line
         x1="7"
         x2="48"
         y1="33"
         y2="33"
         id="line11"
         style="fill:#ffffff;stroke:#ffffff;stroke-width:3.5;stroke-linecap:round" /><line
         x1="7"
         x2="48"
         y1="44"
         y2="44"
         id="line13"
         style="fill:#ffffff;stroke:#ffffff;stroke-width:3.5;stroke-linecap:round" /></g></g><g
     id="list-add"
     display="block"
     style="display:block;fill:#ffffff"
     transform="matrix(0,-0.53393197,0.53393197,0,26.213539,43.837583)"><path
       id="path3551"
       display="inline"
       d="M 43.467,11.644 C 34.678,2.854 20.432,2.858 11.649,11.642 2.858,20.433 2.857,34.675 11.647,43.465 c 8.79,8.789 23.031,8.788 31.822,-0.003 8.783,-8.784 8.788,-23.029 -0.002,-31.818 z M 30.768,38.767 c -0.002,1.774 -1.438,3.216 -3.214,3.214 -0.889,10e-4 -1.693,-0.359 -2.275,-0.941 -0.582,-0.581 -0.94,-1.385 -0.94,-2.27 l 0,-8.146 -8.146,0 c -0.886,-10e-4 -1.689,-0.359 -2.271,-0.94 -0.582,-0.583 -0.942,-1.388 -0.942,-2.276 0,-1.773 1.439,-3.213 3.217,-3.211 l 8.143,0 0,-8.143 c -0.003,-1.776 1.438,-3.217 3.212,-3.217 1.774,0 3.218,1.438 3.215,3.215 l 0.001,8.145 8.146,0.001 c 1.775,-0.005 3.212,1.438 3.213,3.213 0.002,1.775 -1.441,3.214 -3.215,3.215 l -8.143,0 0,8.141 z"
       inkscape:connector-curvature="0"
       style="display:inline;fill:#ffffff" /></g></svg>